<?xml version="1.0" standalone="no"?>
<!DOCTYPE svg PUBLIC "-//W3C//DTD SVG 20010904//EN"
 "http://www.w3.org/TR/2001/REC-SVG-20010904/DTD/svg10.dtd">
<svg version="1.0" xmlns="http://www.w3.org/2000/svg"
 width="487.000000pt" height="487.000000pt" viewBox="0 0 487.000000 487.000000"
 preserveAspectRatio="xMidYMid meet">
<metadata>
Created by potrace 1.14, written by Peter Selinger 2001-2017
</metadata>
<g transform="translate(0.000000,487.000000) scale(0.100000,-0.100000)"
fill="#000000" stroke="none">
<path d="M2225 4833 c-459 -40 -938 -234 -1300 -528 -110 -89 -282 -262 -368
-370 -288 -361 -470 -813 -513 -1272 l-7 -73 97 0 c69 0 98 4 100 13 2 6 9 62
16 122 80 708 553 1368 1214 1694 303 149 620 222 971 222 266 1 452 -27 682
-102 508 -165 935 -502 1216 -959 153 -250 276 -613 304 -905 l8 -80 98 -3 97
-3 0 33 c0 69 -41 305 -75 435 -105 398 -305 750 -600 1052 -404 415 -880 649
-1455 716 -111 13 -376 18 -485 8z"/>
<path d="M2226 4250 c-395 -50 -762 -224 -1050 -500 -362 -347 -557 -805 -557
-1310 0 -267 48 -499 154 -738 l19 -44 58 116 58 116 -23 73 c-61 190 -85 413
-67 611 36 399 191 727 476 1011 235 234 471 365 796 442 130 30 421 43 564
24 612 -82 1134 -510 1326 -1090 49 -147 67 -234 82 -393 14 -155 0 -342 -36
-493 -23 -93 -23 -101 -8 -130 8 -16 32 -77 52 -134 l37 -105 15 30 c23 44 75
208 97 304 63 269 57 591 -14 860 -88 331 -251 608 -498 847 -267 258 -589
422 -962 489 -104 19 -415 27 -519 14z"/>
<path d="M2116 2803 c-359 -76 -628 -371 -677 -741 l-12 -88 -71 -37 c-138
-71 -251 -202 -304 -350 -34 -96 -42 -271 -17 -366 59 -229 235 -406 465 -468
60 -17 133 -18 895 -18 l830 0 78 23 c221 64 383 197 483 397 60 121 77 207
72 360 -4 97 -10 136 -32 200 -98 287 -347 483 -648 512 -45 4 -68 10 -68 18
0 7 -20 53 -44 101 -147 293 -448 475 -781 473 -55 0 -131 -7 -169 -16z m349
-200 c112 -27 202 -80 297 -173 71 -70 94 -100 127 -170 23 -47 49 -119 59
-160 l18 -75 115 3 c186 5 299 -38 425 -163 104 -103 164 -244 164 -385 0
-247 -186 -477 -431 -535 -97 -22 -1606 -22 -1694 0 -217 56 -364 280 -327
496 32 185 173 331 357 369 l55 11 0 113 c0 210 56 352 195 491 172 173 400
237 640 178z"/>
<path d="M40 2261 c0 -44 29 -244 47 -326 63 -291 180 -568 343 -813 103 -155
169 -235 298 -365 278 -282 579 -470 950 -594 418 -140 900 -161 1332 -58 232
56 556 197 755 330 277 186 516 428 702 712 199 302 334 696 369 1071 l7 72
-97 0 c-69 0 -98 -4 -100 -12 -2 -7 -9 -62 -16 -123 -24 -217 -98 -462 -204
-680 -331 -677 -974 -1133 -1731 -1226 -116 -14 -405 -14 -520 1 -408 51 -815
224 -1133 482 -174 141 -364 358 -484 550 -67 108 -167 319 -206 433 -55 161
-103 387 -114 535 l-3 35 -97 3 -98 3 0 -30z"/>
</g>
</svg>
