<?xml version="1.0" encoding="utf-8"?>
<!-- Generator: Adobe Illustrator 27.8.0, SVG Export Plug-In . SVG Version: 6.00 Build 0)  -->
<svg version="1.1" id="Layer_1" xmlns="http://www.w3.org/2000/svg" xmlns:xlink="http://www.w3.org/1999/xlink" x="0px" y="0px"
	 viewBox="0 0 448.2 436.9" style="enable-background:new 0 0 448.2 436.9;" xml:space="preserve">
<style type="text/css">
	.st0{fill:#61A60E;}
	.st1{fill:#6C4B94;}
	.st2{fill:#0098C7;}
	.st3{fill:#005C8A;}
</style>
<path class="st0" d="M441.8,290.9L335.2,424.5l-8.8-18.3l95.7-119.9L441.8,290.9z M121.7,406.3L26.1,286.4l-19.7,4.6L113,424.5
	L121.7,406.3z"/>
<path class="st1" d="M0,263.1L38,96.5l15.8,12.6L19.7,258.6L0,263.1z M448.2,263.1l-38-166.6l-15.8,12.6l34.1,149.6L448.2,263.1z"/>
<path class="st2" d="M309.5,436.9H138.7l8.8-18.3h153.4L309.5,436.9z M392.3,74.2L238.3,0v20.2l138.2,66.5L392.3,74.2z M209.8,20.2
	L71.7,86.7L55.9,74.2L209.9,0L209.8,20.2z"/>
<path class="st3" d="M300.1,384H148L53.3,265.2L87.1,117l137-66l137,66l33.8,148.2L300.1,384z M156.8,365.9h134.4l83.8-105.1
	l-29.9-131.1L224.1,71.3l-121.2,58.3L73,260.7L156.8,365.9z"/>
</svg>
